<mxfile host="65bd71144e">
    <diagram id="kcttdoMmuujv8JTSkhz7" name="PÃ¡gina-1">
        <mxGraphModel dx="528" dy="457" grid="1" gridSize="10" guides="1" tooltips="1" connect="1" arrows="1" fold="1" page="1" pageScale="1" pageWidth="827" pageHeight="1169" math="0" shadow="0">
            <root>
                <mxCell id="0"/>
                <mxCell id="1" parent="0"/>
                <mxCell id="4" style="edgeStyle=none;html=1;entryX=0.5;entryY=0;entryDx=0;entryDy=0;" edge="1" parent="1" source="2" target="3">
                    <mxGeometry relative="1" as="geometry"/>
                </mxCell>
                <mxCell id="2" value="&lt;h1&gt;INICIO&lt;/h1&gt;" style="rounded=1;whiteSpace=wrap;html=1;fontStyle=1;fillColor=#fad9d5;strokeColor=#781A0E;fontColor=#000000;strokeWidth=4;" vertex="1" parent="1">
                    <mxGeometry x="215" y="20" width="120" height="40" as="geometry"/>
                </mxCell>
                <mxCell id="9" style="edgeStyle=none;html=1;" edge="1" parent="1" source="3" target="7">
                    <mxGeometry relative="1" as="geometry"/>
                </mxCell>
                <mxCell id="3" value="&lt;h1&gt;&lt;font color=&quot;#000000&quot;&gt;n&lt;/font&gt;&lt;/h1&gt;" style="shape=parallelogram;perimeter=parallelogramPerimeter;whiteSpace=wrap;html=1;fixedSize=1;fillColor=#d0cee2;strokeColor=#7a0670;strokeWidth=4;" vertex="1" parent="1">
                    <mxGeometry x="220" y="100" width="110" height="40" as="geometry"/>
                </mxCell>
                <mxCell id="10" style="edgeStyle=none;html=1;entryX=0.5;entryY=0;entryDx=0;entryDy=0;" edge="1" parent="1" source="7" target="8">
                    <mxGeometry relative="1" as="geometry"/>
                </mxCell>
                <mxCell id="7" value="&lt;h2&gt;&lt;font color=&quot;#000000&quot;&gt;S=(n(n+1))/2&lt;/font&gt;&lt;/h2&gt;" style="rounded=0;whiteSpace=wrap;html=1;fillColor=#b0e3e6;strokeColor=#090724;strokeWidth=4;" vertex="1" parent="1">
                    <mxGeometry x="200" y="180" width="150" height="80" as="geometry"/>
                </mxCell>
                <mxCell id="13" style="edgeStyle=none;html=1;entryX=0.5;entryY=0;entryDx=0;entryDy=0;" edge="1" parent="1" source="8" target="11">
                    <mxGeometry relative="1" as="geometry"/>
                </mxCell>
                <mxCell id="8" value="&lt;h1&gt;&lt;font color=&quot;#000000&quot;&gt;S&lt;/font&gt;&lt;/h1&gt;" style="shape=document;whiteSpace=wrap;html=1;boundedLbl=1;fillColor=#d0cee2;strokeColor=#761949;strokeWidth=4;" vertex="1" parent="1">
                    <mxGeometry x="215" y="300" width="120" height="80" as="geometry"/>
                </mxCell>
                <mxCell id="11" value="&lt;h1&gt;&lt;font color=&quot;#000000&quot;&gt;FIN&lt;/font&gt;&lt;/h1&gt;" style="rounded=1;whiteSpace=wrap;html=1;fillColor=#b0e3e6;strokeColor=#000033;strokeWidth=4;" vertex="1" parent="1">
                    <mxGeometry x="232.5" y="430" width="85" height="40" as="geometry"/>
                </mxCell>
            </root>
        </mxGraphModel>
    </diagram>
</mxfile>